<mxfile host="65bd71144e">
    <diagram id="HhxXJuUZm-RmzwQkKwBD" name="Page-1">
        <mxGraphModel dx="106" dy="2607" grid="1" gridSize="10" guides="1" tooltips="1" connect="1" arrows="1" fold="1" page="1" pageScale="1" pageWidth="1654" pageHeight="1169" math="0" shadow="0">
            <root>
                <mxCell id="0"/>
                <mxCell id="1" parent="0"/>
                <mxCell id="235" value="&lt;p class=&quot;MsoNormal&quot; style=&quot;font-size: 17px&quot;&gt;&lt;font style=&quot;font-size: 17px&quot;&gt;UTILISATEUR(&lt;u&gt;id_utilisateur&lt;/u&gt;, login, mot_de_passe)&lt;/font&gt;&lt;/p&gt;&lt;p class=&quot;MsoNormal&quot; style=&quot;font-size: 17px&quot;&gt;&lt;font style=&quot;font-size: 17px&quot;&gt;ETUDIANT(&lt;u&gt;id_etudiant&lt;/u&gt;, #id_utilisateur, nom, prenom, date_de_naissance, email, photo,&lt;br&gt;telephone, niveau_etude, type_de_recherche,zone_de_recherche, cv, #id_adresse)&lt;/font&gt;&lt;/p&gt;&lt;p class=&quot;MsoNormal&quot; style=&quot;font-size: 17px&quot;&gt;&lt;font style=&quot;font-size: 17px&quot;&gt;ENTREPRISE(&lt;u&gt;id_entreprise&lt;/u&gt;, #id_utilisateur, siren, nom, email, photo, téléphone, interlocuteur, #id_adresse )&lt;/font&gt;&lt;/p&gt;&lt;p class=&quot;MsoNormal&quot; style=&quot;font-size: 17px&quot;&gt;&lt;font style=&quot;font-size: 17px&quot;&gt;ADRESSE(&lt;u&gt;id_adresse&lt;/u&gt;, numéro, rue, code_postal, ville)&lt;/font&gt;&lt;/p&gt;&lt;p class=&quot;MsoNormal&quot; style=&quot;font-size: 17px&quot;&gt;&lt;font style=&quot;font-size: 17px&quot;&gt;CANDIDATURE(&lt;u&gt;id_candidature&lt;/u&gt;, #id_etudiant, intitulé,&lt;br&gt;type_de_contrat, description)&lt;/font&gt;&lt;/p&gt;&lt;p class=&quot;MsoNormal&quot; style=&quot;font-size: 17px&quot;&gt;&lt;font style=&quot;font-size: 17px&quot;&gt;CANDIDATURE_ENTREPRISE(#id_entreprise, #id_candidature)&lt;/font&gt;&lt;/p&gt;&lt;p class=&quot;MsoNormal&quot; style=&quot;font-size: 17px&quot;&gt;&lt;font style=&quot;font-size: 17px&quot;&gt;ANNONCE(&lt;u&gt;id_annonce&lt;/u&gt;, intitulé, auteur,&lt;br&gt;type_de_contrat, description)&lt;/font&gt;&lt;/p&gt;&lt;p class=&quot;MsoNormal&quot; style=&quot;font-size: 17px&quot;&gt;&lt;font style=&quot;font-size: 17px&quot;&gt;ANNONCE_ETUDIANT(#id_etudiant, #id_annonce)&lt;br&gt;&lt;/font&gt;&lt;/p&gt;&lt;p class=&quot;MsoNormal&quot; style=&quot;font-size: 17px&quot;&gt;&lt;font style=&quot;font-size: 17px&quot;&gt;ANNONCE_ENTREPRISE(#id_entreprise, #id_annonce)&lt;/font&gt;&lt;/p&gt;&lt;p class=&quot;MsoNormal&quot; style=&quot;font-size: 17px&quot;&gt;&lt;span lang=&quot;EN-US&quot;&gt;&lt;font style=&quot;font-size: 17px&quot;&gt;CORRESPONDANCE(&lt;u&gt;id_correspondance&lt;/u&gt;,&lt;br&gt;date, id_etudiant_cible, id_entreprise_cible, statut, #id_candidature, #id_annonce)&lt;/font&gt;&lt;/span&gt;&lt;/p&gt;&lt;p class=&quot;MsoNormal&quot; style=&quot;font-size: 17px&quot;&gt;&lt;font style=&quot;font-size: 17px&quot;&gt;MESSAGE(&lt;u&gt;id_message&lt;/u&gt;, date, contenu, expediteur, destinataire, #id_correspondance, #id_etudiant, #id_entreprise)&lt;/font&gt;&lt;/p&gt;&lt;p class=&quot;MsoNormal&quot; style=&quot;font-size: 17px&quot;&gt;&lt;font style=&quot;font-size: 17px&quot;&gt;TAG(&lt;u&gt;id_tag&lt;/u&gt;, label&lt;u&gt;)&lt;/u&gt;&lt;/font&gt;&lt;/p&gt;&lt;p class=&quot;MsoNormal&quot; style=&quot;font-size: 17px&quot;&gt;&lt;font style=&quot;font-size: 17px&quot;&gt;TAG_ANNONCE(#id_tag, #id_annonce)&lt;/font&gt;&lt;/p&gt;&lt;p class=&quot;MsoNormal&quot; style=&quot;font-size: 17px&quot;&gt;&lt;font style=&quot;font-size: 17px&quot;&gt;TAG_CANDIDATURE&lt;u&gt;(&lt;/u&gt;&amp;nbsp;#id_tag, #id_candidature)&lt;/font&gt;&lt;/p&gt;&lt;p class=&quot;MsoNormal&quot; style=&quot;font-size: 17px&quot;&gt;&lt;font style=&quot;font-size: 17px&quot;&gt;TAG_ETUDIANT&lt;u&gt;(&lt;/u&gt;#id_tag, #id_etudiant)&lt;/font&gt;&lt;/p&gt;&lt;p class=&quot;MsoNormal&quot; style=&quot;font-size: 17px&quot;&gt;&lt;font style=&quot;font-size: 17px&quot;&gt;TAG_ENTREPRISE&lt;u&gt;(&lt;/u&gt;#id_tag, #id_entreprise&lt;u&gt;)&lt;/u&gt;&lt;/font&gt;&lt;/p&gt;" style="text;html=1;align=left;verticalAlign=middle;resizable=0;points=[];autosize=1;strokeColor=none;fillColor=none;" parent="1" vertex="1">
                    <mxGeometry x="2060" y="-890" width="880" height="570" as="geometry"/>
                </mxCell>
                <mxCell id="1160" value="" style="edgeStyle=orthogonalEdgeStyle;fontSize=12;html=1;endArrow=ERzeroToMany;endFill=1;exitX=0;exitY=0.5;exitDx=0;exitDy=0;entryX=0;entryY=0.5;entryDx=0;entryDy=0;" parent="1" target="1157" edge="1">
                    <mxGeometry width="100" height="100" relative="1" as="geometry">
                        <mxPoint x="3140" y="729" as="sourcePoint"/>
                        <mxPoint x="2830" y="117" as="targetPoint"/>
                        <Array as="points">
                            <mxPoint x="3060" y="729"/>
                            <mxPoint x="3060" y="414"/>
                            <mxPoint x="2650" y="414"/>
                            <mxPoint x="2650" y="-36"/>
                        </Array>
                    </mxGeometry>
                </mxCell>
            </root>
        </mxGraphModel>
    </diagram>
</mxfile>